<?xml version="1.0" encoding="UTF-8"?>
<svg id="Layer_2" xmlns="http://www.w3.org/2000/svg" viewBox="0 0 1317 693">
  <defs>
    <style>
      .cls-1 {
        fill: #fff;
      }
    </style>
  </defs>
  <g id="Layer_1-2" data-name="Layer_1">
    <g>
      <path class="cls-1" d="M30.55,692.5c-16.57,0-30.05-13.48-30.05-30.05V30.55C.5,13.98,13.98.5,30.55.5h400.45c16.27,0,29.5,13.23,29.5,29.5v34c0,16.82,13.68,30.5,30.5,30.5h315c16.82,0,30.5-13.68,30.5-30.5V30c0-16.27,13.23-29.5,29.5-29.5h420.45c16.57,0,30.05,13.48,30.05,30.05v631.89c0,16.57-13.48,30.05-30.05,30.05H30.55Z"/>
      <path d="M1286.45,1c16.3,0,29.55,13.26,29.55,29.55v631.89c0,16.3-13.26,29.55-29.55,29.55H30.55c-16.3,0-29.55-13.26-29.55-29.55V30.55C1,14.26,14.26,1,30.55,1h400.45c15.99,0,29,13.01,29,29v34c0,17.09,13.91,31,31,31h315c17.09,0,31-13.91,31-31V30c0-15.99,13.01-29,29-29h420.45M1286.45,0h-420.45c-16.57,0-30,13.43-30,30v34c0,16.57-13.43,30-30,30h-315c-16.57,0-30-13.43-30-30V30c0-16.57-13.43-30-30-30H30.55C13.68,0,0,13.68,0,30.55v631.89c0,16.87,13.68,30.55,30.55,30.55h1255.89c16.87,0,30.55-13.68,30.55-30.55V30.55c0-16.87-13.68-30.55-30.55-30.55h0Z"/>
    </g>
  </g>
</svg>