<svg width="220" height="216" viewBox="0 0 220 216" fill="none" xmlns="http://www.w3.org/2000/svg">
<g id="Group 9">
<circle id="Ellipse 2" cx="9.82613" cy="9.82613" r="9.82613" fill="#E04D34"/>
<ellipse id="Ellipse 26" cx="9.82613" cy="125.634" rx="9.82613" ry="9.12426" fill="#E04D34"/>
<circle id="Ellipse 14" cx="130.547" cy="9.82613" r="9.82613" fill="#E04D34"/>
<ellipse id="Ellipse 27" cx="130.547" cy="125.634" rx="9.82613" ry="9.12426" fill="#E04D34"/>
<circle id="Ellipse 8" cx="9.82613" cy="67.3791" r="9.82613" fill="#E04D34"/>
<circle id="Ellipse 28" cx="9.82613" cy="183.889" r="9.82613" fill="#E04D34"/>
<circle id="Ellipse 15" cx="130.547" cy="67.3791" r="9.82613" fill="#E04D34"/>
<circle id="Ellipse 29" cx="130.547" cy="183.889" r="9.82613" fill="#E04D34"/>
<ellipse id="Ellipse 5" cx="9.82613" cy="38.6027" rx="9.82613" ry="9.12426" fill="#E04D34"/>
<circle id="Ellipse 30" cx="9.82613" cy="154.411" r="9.82613" fill="#E04D34"/>
<ellipse id="Ellipse 16" cx="130.547" cy="38.6027" rx="9.82613" ry="9.12426" fill="#E04D34"/>
<circle id="Ellipse 31" cx="130.547" cy="154.411" r="9.82613" fill="#E04D34"/>
<circle id="Ellipse 9" cx="9.82613" cy="96.8576" r="9.82613" fill="#E04D34"/>
<circle id="Ellipse 32" cx="9.82613" cy="211.964" r="9.82613" fill="#E04D34"/>
<circle id="Ellipse 17" cx="130.547" cy="96.8576" r="9.82613" fill="#E04D34"/>
<circle id="Ellipse 33" cx="130.547" cy="211.964" r="9.82613" fill="#E04D34"/>
<ellipse id="Ellipse 3" cx="49.8325" cy="9.82613" rx="9.12426" ry="9.82613" fill="#E04D34"/>
<circle id="Ellipse 34" cx="49.8325" cy="125.634" r="9.12426" fill="#E04D34"/>
<ellipse id="Ellipse 18" cx="170.554" cy="9.82613" rx="9.12426" ry="9.82613" fill="#E04D34"/>
<circle id="Ellipse 35" cx="170.554" cy="125.634" r="9.12426" fill="#E04D34"/>
<ellipse id="Ellipse 10" cx="49.8325" cy="67.3791" rx="9.12426" ry="9.82613" fill="#E04D34"/>
<ellipse id="Ellipse 36" cx="49.8325" cy="183.889" rx="9.12426" ry="9.82613" fill="#E04D34"/>
<ellipse id="Ellipse 19" cx="170.554" cy="67.3791" rx="9.12426" ry="9.82613" fill="#E04D34"/>
<ellipse id="Ellipse 37" cx="170.554" cy="183.889" rx="9.12426" ry="9.82613" fill="#E04D34"/>
<circle id="Ellipse 6" cx="49.8325" cy="38.6027" r="9.12426" fill="#E04D34"/>
<ellipse id="Ellipse 38" cx="49.8325" cy="154.411" rx="9.12426" ry="9.82613" fill="#E04D34"/>
<circle id="Ellipse 20" cx="170.554" cy="38.6027" r="9.12426" fill="#E04D34"/>
<ellipse id="Ellipse 39" cx="170.554" cy="154.411" rx="9.12426" ry="9.82613" fill="#E04D34"/>
<ellipse id="Ellipse 11" cx="49.8325" cy="96.8576" rx="9.12426" ry="9.82613" fill="#E04D34"/>
<ellipse id="Ellipse 40" cx="49.8325" cy="211.964" rx="9.12426" ry="9.82613" fill="#E04D34"/>
<ellipse id="Ellipse 21" cx="170.554" cy="96.8576" rx="9.12426" ry="9.82613" fill="#E04D34"/>
<ellipse id="Ellipse 41" cx="170.554" cy="211.964" rx="9.12426" ry="9.82613" fill="#E04D34"/>
<circle id="Ellipse 4" cx="89.8389" cy="9.82613" r="9.82613" fill="#E04D34"/>
<ellipse id="Ellipse 42" cx="89.8389" cy="125.634" rx="9.82613" ry="9.12426" fill="#E04D34"/>
<circle id="Ellipse 22" cx="210.56" cy="9.82613" r="9.82613" fill="#E04D34"/>
<ellipse id="Ellipse 43" cx="210.56" cy="125.634" rx="9.82613" ry="9.12426" fill="#E04D34"/>
<circle id="Ellipse 12" cx="89.8389" cy="67.3791" r="9.82613" fill="#E04D34"/>
<circle id="Ellipse 44" cx="89.8389" cy="183.889" r="9.82613" fill="#E04D34"/>
<circle id="Ellipse 23" cx="210.56" cy="67.3791" r="9.82613" fill="#E04D34"/>
<circle id="Ellipse 45" cx="210.56" cy="183.889" r="9.82613" fill="#E04D34"/>
<ellipse id="Ellipse 7" cx="89.8389" cy="38.6027" rx="9.82613" ry="9.12426" fill="#E04D34"/>
<circle id="Ellipse 46" cx="89.8389" cy="154.411" r="9.82613" fill="#E04D34"/>
<ellipse id="Ellipse 24" cx="210.56" cy="38.6027" rx="9.82613" ry="9.12426" fill="#E04D34"/>
<circle id="Ellipse 47" cx="210.56" cy="154.411" r="9.82613" fill="#E04D34"/>
<circle id="Ellipse 13" cx="89.8389" cy="96.8576" r="9.82613" fill="#E04D34"/>
<circle id="Ellipse 48" cx="89.8389" cy="211.964" r="9.82613" fill="#E04D34"/>
<circle id="Ellipse 25" cx="210.56" cy="96.8576" r="9.82613" fill="#E04D34"/>
<circle id="Ellipse 49" cx="210.56" cy="211.964" r="9.82613" fill="#E04D34"/>
</g>
</svg>
