<?xml version="1.0" encoding="UTF-8" standalone="no"?>
<!DOCTYPE svg PUBLIC "-//W3C//DTD SVG 1.1//EN" "http://www.w3.org/Graphics/SVG/1.1/DTD/svg11.dtd">
<svg width="100%" height="100%" viewBox="0 0 1668 967" version="1.1" xmlns="http://www.w3.org/2000/svg" xmlns:xlink="http://www.w3.org/1999/xlink" xml:space="preserve" xmlns:serif="http://www.serif.com/" style="fill-rule:evenodd;clip-rule:evenodd;stroke-linejoin:round;stroke-miterlimit:2;">
    <g>
        <g>
            <circle cx="9.826" cy="754.826" r="9.826" style="fill:rgb(224,77,52);"/>
            <ellipse cx="9.826" cy="870.634" rx="9.826" ry="9.124" style="fill:rgb(224,77,52);"/>
            <circle cx="130.547" cy="754.826" r="9.826" style="fill:rgb(224,77,52);"/>
            <ellipse cx="130.547" cy="870.634" rx="9.826" ry="9.124" style="fill:rgb(224,77,52);"/>
            <circle cx="9.826" cy="812.379" r="9.826" style="fill:rgb(224,77,52);"/>
            <circle cx="9.826" cy="928.889" r="9.826" style="fill:rgb(224,77,52);"/>
            <circle cx="130.547" cy="812.379" r="9.826" style="fill:rgb(224,77,52);"/>
            <circle cx="130.547" cy="928.889" r="9.826" style="fill:rgb(224,77,52);"/>
            <ellipse cx="9.826" cy="783.603" rx="9.826" ry="9.124" style="fill:rgb(224,77,52);"/>
            <circle cx="9.826" cy="899.411" r="9.826" style="fill:rgb(224,77,52);"/>
            <ellipse cx="130.547" cy="783.603" rx="9.826" ry="9.124" style="fill:rgb(224,77,52);"/>
            <circle cx="130.547" cy="899.411" r="9.826" style="fill:rgb(224,77,52);"/>
            <circle cx="9.826" cy="841.858" r="9.826" style="fill:rgb(224,77,52);"/>
            <circle cx="9.826" cy="956.964" r="9.826" style="fill:rgb(224,77,52);"/>
            <circle cx="130.547" cy="841.858" r="9.826" style="fill:rgb(224,77,52);"/>
            <circle cx="130.547" cy="956.964" r="9.826" style="fill:rgb(224,77,52);"/>
            <ellipse cx="49.833" cy="754.826" rx="9.124" ry="9.826" style="fill:rgb(224,77,52);"/>
            <circle cx="49.833" cy="870.634" r="9.124" style="fill:rgb(224,77,52);"/>
            <ellipse cx="170.554" cy="754.826" rx="9.124" ry="9.826" style="fill:rgb(224,77,52);"/>
            <circle cx="170.554" cy="870.634" r="9.124" style="fill:rgb(224,77,52);"/>
            <ellipse cx="49.833" cy="812.379" rx="9.124" ry="9.826" style="fill:rgb(224,77,52);"/>
            <ellipse cx="49.833" cy="928.889" rx="9.124" ry="9.826" style="fill:rgb(224,77,52);"/>
            <ellipse cx="170.554" cy="812.379" rx="9.124" ry="9.826" style="fill:rgb(224,77,52);"/>
            <ellipse cx="170.554" cy="928.889" rx="9.124" ry="9.826" style="fill:rgb(224,77,52);"/>
            <circle cx="49.833" cy="783.603" r="9.124" style="fill:rgb(224,77,52);"/>
            <ellipse cx="49.833" cy="899.411" rx="9.124" ry="9.826" style="fill:rgb(224,77,52);"/>
            <circle cx="170.554" cy="783.603" r="9.124" style="fill:rgb(224,77,52);"/>
            <ellipse cx="170.554" cy="899.411" rx="9.124" ry="9.826" style="fill:rgb(224,77,52);"/>
            <ellipse cx="49.833" cy="841.858" rx="9.124" ry="9.826" style="fill:rgb(224,77,52);"/>
            <ellipse cx="49.833" cy="956.964" rx="9.124" ry="9.826" style="fill:rgb(224,77,52);"/>
            <ellipse cx="170.554" cy="841.858" rx="9.124" ry="9.826" style="fill:rgb(224,77,52);"/>
            <ellipse cx="170.554" cy="956.964" rx="9.124" ry="9.826" style="fill:rgb(224,77,52);"/>
            <circle cx="89.839" cy="754.826" r="9.826" style="fill:rgb(224,77,52);"/>
            <ellipse cx="89.839" cy="870.634" rx="9.826" ry="9.124" style="fill:rgb(224,77,52);"/>
            <circle cx="210.56" cy="754.826" r="9.826" style="fill:rgb(224,77,52);"/>
            <ellipse cx="210.56" cy="870.634" rx="9.826" ry="9.124" style="fill:rgb(224,77,52);"/>
            <circle cx="89.839" cy="812.379" r="9.826" style="fill:rgb(224,77,52);"/>
            <circle cx="89.839" cy="928.889" r="9.826" style="fill:rgb(224,77,52);"/>
            <circle cx="210.56" cy="812.379" r="9.826" style="fill:rgb(224,77,52);"/>
            <circle cx="210.56" cy="928.889" r="9.826" style="fill:rgb(224,77,52);"/>
            <ellipse cx="89.839" cy="783.603" rx="9.826" ry="9.124" style="fill:rgb(224,77,52);"/>
            <circle cx="89.839" cy="899.411" r="9.826" style="fill:rgb(224,77,52);"/>
            <ellipse cx="210.56" cy="783.603" rx="9.826" ry="9.124" style="fill:rgb(224,77,52);"/>
            <circle cx="210.56" cy="899.411" r="9.826" style="fill:rgb(224,77,52);"/>
            <circle cx="89.839" cy="841.858" r="9.826" style="fill:rgb(224,77,52);"/>
            <circle cx="89.839" cy="956.964" r="9.826" style="fill:rgb(224,77,52);"/>
            <circle cx="210.56" cy="841.858" r="9.826" style="fill:rgb(224,77,52);"/>
            <circle cx="210.56" cy="956.964" r="9.826" style="fill:rgb(224,77,52);"/>
            <circle cx="246.826" cy="754.826" r="9.826" style="fill:rgb(224,77,52);"/>
            <ellipse cx="246.826" cy="870.634" rx="9.826" ry="9.124" style="fill:rgb(224,77,52);"/>
            <circle cx="367.547" cy="754.826" r="9.826" style="fill:rgb(224,77,52);"/>
            <ellipse cx="367.547" cy="870.634" rx="9.826" ry="9.124" style="fill:rgb(224,77,52);"/>
            <circle cx="246.826" cy="812.379" r="9.826" style="fill:rgb(224,77,52);"/>
            <circle cx="246.826" cy="928.889" r="9.826" style="fill:rgb(224,77,52);"/>
            <circle cx="367.547" cy="812.379" r="9.826" style="fill:rgb(224,77,52);"/>
            <circle cx="367.547" cy="928.889" r="9.826" style="fill:rgb(224,77,52);"/>
            <ellipse cx="246.826" cy="783.603" rx="9.826" ry="9.124" style="fill:rgb(224,77,52);"/>
            <circle cx="246.826" cy="899.411" r="9.826" style="fill:rgb(224,77,52);"/>
            <ellipse cx="367.547" cy="783.603" rx="9.826" ry="9.124" style="fill:rgb(224,77,52);"/>
            <circle cx="367.547" cy="899.411" r="9.826" style="fill:rgb(224,77,52);"/>
            <circle cx="246.826" cy="841.858" r="9.826" style="fill:rgb(224,77,52);"/>
            <circle cx="246.826" cy="956.964" r="9.826" style="fill:rgb(224,77,52);"/>
            <circle cx="367.547" cy="841.858" r="9.826" style="fill:rgb(224,77,52);"/>
            <circle cx="367.547" cy="956.964" r="9.826" style="fill:rgb(224,77,52);"/>
            <ellipse cx="286.833" cy="754.826" rx="9.124" ry="9.826" style="fill:rgb(224,77,52);"/>
            <circle cx="286.833" cy="870.634" r="9.124" style="fill:rgb(224,77,52);"/>
            <ellipse cx="407.554" cy="754.826" rx="9.124" ry="9.826" style="fill:rgb(224,77,52);"/>
            <circle cx="407.554" cy="870.634" r="9.124" style="fill:rgb(224,77,52);"/>
            <ellipse cx="286.833" cy="812.379" rx="9.124" ry="9.826" style="fill:rgb(224,77,52);"/>
            <ellipse cx="286.833" cy="928.889" rx="9.124" ry="9.826" style="fill:rgb(224,77,52);"/>
            <ellipse cx="407.554" cy="812.379" rx="9.124" ry="9.826" style="fill:rgb(224,77,52);"/>
            <ellipse cx="407.554" cy="928.889" rx="9.124" ry="9.826" style="fill:rgb(224,77,52);"/>
            <circle cx="286.833" cy="783.603" r="9.124" style="fill:rgb(224,77,52);"/>
            <ellipse cx="286.833" cy="899.411" rx="9.124" ry="9.826" style="fill:rgb(224,77,52);"/>
            <circle cx="407.554" cy="783.603" r="9.124" style="fill:rgb(224,77,52);"/>
            <ellipse cx="407.554" cy="899.411" rx="9.124" ry="9.826" style="fill:rgb(224,77,52);"/>
            <ellipse cx="286.833" cy="841.858" rx="9.124" ry="9.826" style="fill:rgb(224,77,52);"/>
            <ellipse cx="286.833" cy="956.964" rx="9.124" ry="9.826" style="fill:rgb(224,77,52);"/>
            <ellipse cx="407.554" cy="841.858" rx="9.124" ry="9.826" style="fill:rgb(224,77,52);"/>
            <ellipse cx="407.554" cy="956.964" rx="9.124" ry="9.826" style="fill:rgb(224,77,52);"/>
            <circle cx="326.839" cy="754.826" r="9.826" style="fill:rgb(224,77,52);"/>
            <ellipse cx="326.839" cy="870.634" rx="9.826" ry="9.124" style="fill:rgb(224,77,52);"/>
            <circle cx="447.56" cy="754.826" r="9.826" style="fill:rgb(224,77,52);"/>
            <ellipse cx="447.56" cy="870.634" rx="9.826" ry="9.124" style="fill:rgb(224,77,52);"/>
            <circle cx="326.839" cy="812.379" r="9.826" style="fill:rgb(224,77,52);"/>
            <circle cx="326.839" cy="928.889" r="9.826" style="fill:rgb(224,77,52);"/>
            <circle cx="447.56" cy="812.379" r="9.826" style="fill:rgb(224,77,52);"/>
            <circle cx="447.56" cy="928.889" r="9.826" style="fill:rgb(224,77,52);"/>
            <ellipse cx="326.839" cy="783.603" rx="9.826" ry="9.124" style="fill:rgb(224,77,52);"/>
            <circle cx="326.839" cy="899.411" r="9.826" style="fill:rgb(224,77,52);"/>
            <ellipse cx="447.56" cy="783.603" rx="9.826" ry="9.124" style="fill:rgb(224,77,52);"/>
            <circle cx="447.56" cy="899.411" r="9.826" style="fill:rgb(224,77,52);"/>
            <circle cx="326.839" cy="841.858" r="9.826" style="fill:rgb(224,77,52);"/>
            <circle cx="326.839" cy="956.964" r="9.826" style="fill:rgb(224,77,52);"/>
            <circle cx="447.56" cy="841.858" r="9.826" style="fill:rgb(224,77,52);"/>
            <circle cx="447.56" cy="956.964" r="9.826" style="fill:rgb(224,77,52);"/>
            <circle cx="92.547" cy="521.826" r="9.826" style="fill:rgb(224,77,52);"/>
            <ellipse cx="92.547" cy="637.634" rx="9.826" ry="9.124" style="fill:rgb(224,77,52);"/>
            <circle cx="92.547" cy="579.379" r="9.826" style="fill:rgb(224,77,52);"/>
            <circle cx="92.547" cy="695.889" r="9.826" style="fill:rgb(224,77,52);"/>
            <ellipse cx="92.547" cy="550.603" rx="9.826" ry="9.124" style="fill:rgb(224,77,52);"/>
            <circle cx="92.547" cy="666.411" r="9.826" style="fill:rgb(224,77,52);"/>
            <circle cx="92.547" cy="608.858" r="9.826" style="fill:rgb(224,77,52);"/>
            <circle cx="92.547" cy="723.964" r="9.826" style="fill:rgb(224,77,52);"/>
            <ellipse cx="11.833" cy="521.826" rx="9.124" ry="9.826" style="fill:rgb(224,77,52);"/>
            <circle cx="11.833" cy="637.634" r="9.124" style="fill:rgb(224,77,52);"/>
            <ellipse cx="132.554" cy="521.826" rx="9.124" ry="9.826" style="fill:rgb(224,77,52);"/>
            <circle cx="132.554" cy="637.634" r="9.124" style="fill:rgb(224,77,52);"/>
            <ellipse cx="11.833" cy="579.379" rx="9.124" ry="9.826" style="fill:rgb(224,77,52);"/>
            <ellipse cx="11.833" cy="695.889" rx="9.124" ry="9.826" style="fill:rgb(224,77,52);"/>
            <ellipse cx="132.554" cy="579.379" rx="9.124" ry="9.826" style="fill:rgb(224,77,52);"/>
            <ellipse cx="132.554" cy="695.889" rx="9.124" ry="9.826" style="fill:rgb(224,77,52);"/>
            <circle cx="11.833" cy="550.603" r="9.124" style="fill:rgb(224,77,52);"/>
            <ellipse cx="11.833" cy="666.411" rx="9.124" ry="9.826" style="fill:rgb(224,77,52);"/>
            <circle cx="132.554" cy="550.603" r="9.124" style="fill:rgb(224,77,52);"/>
            <ellipse cx="132.554" cy="666.411" rx="9.124" ry="9.826" style="fill:rgb(224,77,52);"/>
            <ellipse cx="11.833" cy="608.858" rx="9.124" ry="9.826" style="fill:rgb(224,77,52);"/>
            <ellipse cx="11.833" cy="723.964" rx="9.124" ry="9.826" style="fill:rgb(224,77,52);"/>
            <ellipse cx="132.554" cy="608.858" rx="9.124" ry="9.826" style="fill:rgb(224,77,52);"/>
            <ellipse cx="132.554" cy="723.964" rx="9.124" ry="9.826" style="fill:rgb(224,77,52);"/>
            <circle cx="51.839" cy="521.826" r="9.826" style="fill:rgb(224,77,52);"/>
            <ellipse cx="51.839" cy="637.634" rx="9.826" ry="9.124" style="fill:rgb(224,77,52);"/>
            <circle cx="172.56" cy="521.826" r="9.826" style="fill:rgb(224,77,52);"/>
            <ellipse cx="172.56" cy="637.634" rx="9.826" ry="9.124" style="fill:rgb(224,77,52);"/>
            <circle cx="51.839" cy="579.379" r="9.826" style="fill:rgb(224,77,52);"/>
            <circle cx="51.839" cy="695.889" r="9.826" style="fill:rgb(224,77,52);"/>
            <circle cx="172.56" cy="579.379" r="9.826" style="fill:rgb(224,77,52);"/>
            <circle cx="172.56" cy="695.889" r="9.826" style="fill:rgb(224,77,52);"/>
            <ellipse cx="51.839" cy="550.603" rx="9.826" ry="9.124" style="fill:rgb(224,77,52);"/>
            <circle cx="51.839" cy="666.411" r="9.826" style="fill:rgb(224,77,52);"/>
            <ellipse cx="172.56" cy="550.603" rx="9.826" ry="9.124" style="fill:rgb(224,77,52);"/>
            <circle cx="172.56" cy="666.411" r="9.826" style="fill:rgb(224,77,52);"/>
            <circle cx="51.839" cy="608.858" r="9.826" style="fill:rgb(224,77,52);"/>
            <circle cx="51.839" cy="723.964" r="9.826" style="fill:rgb(224,77,52);"/>
            <circle cx="172.56" cy="608.858" r="9.826" style="fill:rgb(224,77,52);"/>
            <circle cx="172.56" cy="723.964" r="9.826" style="fill:rgb(224,77,52);"/>
        </g>
    </g>
</svg>
