<?xml version="1.0" encoding="UTF-8" standalone="no"?>
<!DOCTYPE svg PUBLIC "-//W3C//DTD SVG 1.1//EN" "http://www.w3.org/Graphics/SVG/1.1/DTD/svg11.dtd">
<svg width="100%" height="100%" viewBox="0 0 1668 967" version="1.1" xmlns="http://www.w3.org/2000/svg" xmlns:xlink="http://www.w3.org/1999/xlink" xml:space="preserve" xmlns:serif="http://www.serif.com/" style="fill-rule:evenodd;clip-rule:evenodd;stroke-linecap:round;stroke-linejoin:round;stroke-miterlimit:1.5;">
    <g>
        <g>
            <g>
                <g>
                    <path d="M115.709,519.682C115.709,519.682 98.701,453.156 86.675,406.13C83.895,395.237 76.209,386.262 65.879,381.833C55.556,377.387 43.754,378.003 33.94,383.499C24.826,388.59 15.282,393.932 6.572,398.8C-1.407,403.255 -10.964,403.93 -19.491,400.628C-28.011,397.309 -34.616,390.379 -37.492,381.689C-60.46,312.508 -111.367,159.153 -135.889,85.261C-138.898,76.199 -146.306,69.294 -155.553,66.91C-164.8,64.526 -174.624,66.998 -181.635,73.472C-229.095,117.33 -317.24,198.777 -361.406,239.584C-376.484,253.521 -378.355,276.675 -365.717,292.852C-320.434,350.793 -217.082,483.012 -156.75,560.196C-145.135,575.052 -127.661,584.162 -108.829,585.161C-89.997,586.16 -71.655,578.965 -58.531,565.423C-37.053,543.252 -13.16,518.606 4.355,500.523C9.978,494.725 18.142,492.143 26.083,493.655C34.028,495.149 40.676,500.555 43.782,508.015C62.574,553.212 93.608,627.816 93.608,627.816L138.714,533.8L115.709,519.682Z" style="fill:rgb(224,77,52);stroke:rgb(79,79,79);stroke-width:3.96px;"/>
                    <path d="M583.549,858.363L529.757,933.229C522.076,943.943 508.523,948.714 495.835,945.201C333.598,899.757 189.354,823.053 62.343,716.393C55.572,710.678 52.941,701.424 55.679,693.014C73.437,638.475 137.5,441.775 137.5,441.775C114.673,403.979 89.1,360.825 79.798,291.538C78.148,279.228 86.225,267.729 98.366,265.086C222.262,238.604 346.107,242.392 453.485,292.042C457.105,293.74 461.396,293.022 464.273,290.248C554.765,203.016 647.269,121.335 749.636,66.812C753.699,64.716 758.608,65.257 762.099,68.192C765.59,71.127 766.969,75.877 765.586,80.223C730.674,187.771 676.415,286.951 631.827,373.708C628.401,380.407 630.253,388.595 636.251,393.147C757.541,485.761 820.57,588.231 841.097,685.924C843.219,696.539 836.733,706.961 826.286,709.728C779.358,722.265 658.125,754.511 658.125,754.511L648.169,768.375C664.927,762.319 691.971,756.054 718.31,748.372C732.444,744.109 747.743,749.025 756.738,760.733C765.758,772.431 766.589,788.482 758.841,801.05C758.835,801.068 758.828,801.085 758.786,801.089C754.408,808.175 755.198,817.288 760.696,823.524C766.212,829.767 775.149,831.67 782.724,828.217C881.416,781.053 966.383,730.01 1043.85,703.415C1054.65,699.888 1066.47,701.497 1075.94,707.751C1085.42,714.028 1091.52,724.259 1092.5,735.587C1099.56,819.1 1093.18,904.587 1078.72,984.206C1075.63,1000.96 1061.33,1013.34 1044.31,1014.01L718.841,1026.73C697.346,1027.57 676.781,1017.86 663.767,1000.74C650.728,983.625 646.865,961.224 653.419,940.726L682.552,849.453L583.549,858.363Z" style="fill:rgb(224,77,52);stroke:rgb(79,79,79);stroke-width:3.96px;"/>
                    <path d="M308.059,461.932L268.031,437.521C262.633,434.224 256.123,433.273 250.005,434.897C243.896,436.503 238.705,440.551 235.639,446.091C196.096,517.319 156.442,590.524 134.107,669.558C130.598,682.447 135.653,696.152 146.7,703.663C239.309,766.23 344.579,823.016 449.771,871.569C469.693,880.718 493.295,873.944 505.361,855.666C536.879,807.92 595.855,718.501 624.059,675.739C628.136,669.574 629.432,661.98 627.639,654.815C625.87,647.64 621.155,641.55 614.679,638.012L567.503,612.238" style="fill:rgb(250,250,250);"/>
                    <path d="M308.063,461.92C349.66,416.385 416.582,398.681 477.403,422.52C553.23,452.241 592.132,535.771 567.5,612.243" style="fill:rgb(79,79,79);"/>
                    <path d="M419.477,718.802C401.456,718.581 383.184,715.16 365.429,708.201C286.592,677.301 247.674,588.203 278.575,509.367C285.583,491.487 295.585,475.661 307.782,462.236L307.481,462.058L307.79,462.219C307.876,462.133 307.969,462.029 308.061,461.925L379.407,503.274L397.748,500.88C443.397,494.925 485.841,525.245 495.042,570.265L567.513,612.254C566.524,615.288 565.452,618.329 564.269,621.346C548.928,660.487 519.239,689.783 483.573,705.593L508.791,851.14C507.62,852.902 506.494,854.601 505.399,856.273C493.333,874.551 469.731,881.325 449.81,872.176C448.432,871.556 447.079,870.926 445.726,870.295L419.477,718.802Z" style="fill:rgb(121,206,238);"/>
                </g>
            </g>
        </g>
    </g>
</svg>
